<svg width="369" height="25" viewBox="0 0 369 25" fill="none" xmlns="http://www.w3.org/2000/svg">
<path d="M11.2959 24.416C4.6079 24.416 -9.76324e-05 19.456 -9.76324e-05 12.8C-9.76324e-05 6.208 4.6399 1.184 11.3279 1.184C16.1599 1.184 19.6159 3.872 21.1519 7.392L18.9439 8.576C17.9199 5.888 15.1679 3.584 11.3279 3.584C6.2079 3.584 2.6239 7.488 2.6239 12.8C2.6239 18.176 6.2079 22.016 11.3279 22.016C14.9119 22.016 18.2079 19.84 19.2319 16.128L21.5359 17.28C20.1279 21.44 16.2239 24.416 11.2959 24.416ZM32.9099 24.416C27.9819 24.416 24.4299 20.896 24.4299 15.84C24.4299 10.816 27.9819 7.264 32.9099 7.264C37.8379 7.264 41.3899 10.816 41.3899 15.84C41.3899 20.896 37.8379 24.416 32.9099 24.416ZM27.0219 15.84C27.0219 19.616 29.4859 22.144 32.9099 22.144C36.3339 22.144 38.7979 19.616 38.7979 15.84C38.7979 12.192 36.3339 9.536 32.9099 9.536C29.4859 9.536 27.0219 12.192 27.0219 15.84ZM45.2412 24V7.68H47.7692V10.432H48.4092C48.9212 8.768 50.5852 7.264 53.1772 7.264C57.0812 7.264 59.2572 10.144 59.2572 13.408V24H56.7292V13.92C56.7292 11.328 54.7772 9.6 52.4412 9.6C49.6892 9.6 47.7692 11.616 47.7692 14.4V24H45.2412ZM70.8697 24.416C65.9097 24.416 62.7737 20.736 62.7737 15.68C62.7737 10.432 66.4857 7.264 70.7737 7.264C75.7657 7.264 78.6777 11.008 78.4217 15.52L78.3577 16.64H65.2697C65.5897 19.904 67.4777 22.144 70.8697 22.144C73.0777 22.144 74.8057 21.248 75.9577 19.36L77.8457 20.576C76.5977 22.88 74.0697 24.416 70.8697 24.416ZM65.3337 14.4H75.9577C75.9577 11.616 73.7817 9.472 70.7737 9.472C67.6057 9.472 65.7497 11.616 65.3337 14.4ZM89.4084 24.416C84.5124 24.416 80.9924 20.768 80.9924 15.84C80.9924 10.912 84.6084 7.264 89.4084 7.264C92.4804 7.264 95.4884 8.768 96.8004 12.064L94.6564 13.184C94.0484 11.392 92.0964 9.6 89.4084 9.6C86.0164 9.6 83.5844 12.224 83.5844 15.84C83.5844 19.616 86.1444 22.08 89.4084 22.08C91.7764 22.08 94.0804 20.832 95.0404 18.144L97.0884 19.168C95.7444 22.912 92.7044 24.416 89.4084 24.416ZM106.049 24C103.905 24 102.145 22.624 102.145 19.968V9.792H99.3287V7.68H102.209V3.968H104.641V7.68H109.761V9.792H104.641V19.968C104.641 21.28 105.441 21.792 106.433 21.792H109.537V24H106.049ZM120.432 24.416C115.472 24.416 112.336 20.736 112.336 15.68C112.336 10.432 116.048 7.264 120.336 7.264C125.328 7.264 128.24 11.008 127.984 15.52L127.92 16.64H114.832C115.152 19.904 117.04 22.144 120.432 22.144C122.64 22.144 124.368 21.248 125.52 19.36L127.408 20.576C126.16 22.88 123.632 24.416 120.432 24.416ZM114.896 14.4H125.52C125.52 11.616 123.344 9.472 120.336 9.472C117.168 9.472 115.312 11.616 114.896 14.4ZM148.096 24.416C143.2 24.416 139.68 20.768 139.68 15.84C139.68 10.912 143.296 7.264 148.096 7.264C151.168 7.264 154.176 8.768 155.488 12.064L153.344 13.184C152.736 11.392 150.784 9.6 148.096 9.6C144.704 9.6 142.272 12.224 142.272 15.84C142.272 19.616 144.832 22.08 148.096 22.08C150.464 22.08 152.768 20.832 153.728 18.144L155.776 19.168C154.432 22.912 151.392 24.416 148.096 24.416ZM164.8 24.416C161.184 24.416 158.816 22.24 158.816 19.168C158.816 16.096 161.216 14.08 164.736 14.08H170.304V13.568C170.304 11.36 168.736 9.472 165.888 9.472C163.36 9.472 161.952 11.072 161.696 12.608L159.488 11.968C160.096 9.184 162.464 7.264 165.888 7.264C170.464 7.264 172.8 10.272 172.8 13.568V21.088C172.8 21.696 173.088 21.888 173.6 21.888H174.144V24H173.12C171.424 24 170.624 22.944 170.624 21.664V21.056H169.984C169.408 23.072 167.584 24.416 164.8 24.416ZM161.344 19.168C161.344 21.152 163.136 22.24 165.088 22.24C168.96 22.24 170.304 19.232 170.304 16.736V16.256H164.96C162.496 16.256 161.344 17.504 161.344 19.168ZM184.143 24.416C179.631 24.416 176.399 20.8 176.399 15.872C176.399 10.912 179.727 7.264 184.143 7.264C186.959 7.264 188.911 8.64 189.615 10.432H190.255V-1.90735e-06H192.751V24H190.255V21.248H189.583C188.911 23.04 186.959 24.416 184.143 24.416ZM178.959 15.872C178.959 19.744 181.423 22.144 184.687 22.144C188.175 22.144 190.351 19.296 190.351 15.872C190.351 11.776 187.759 9.536 184.623 9.536C181.423 9.536 178.959 12.128 178.959 15.872ZM202.738 24.416C199.122 24.416 196.754 22.24 196.754 19.168C196.754 16.096 199.154 14.08 202.674 14.08H208.242V13.568C208.242 11.36 206.674 9.472 203.826 9.472C201.298 9.472 199.89 11.072 199.634 12.608L197.426 11.968C198.034 9.184 200.402 7.264 203.826 7.264C208.402 7.264 210.738 10.272 210.738 13.568V21.088C210.738 21.696 211.026 21.888 211.538 21.888H212.082V24H211.058C209.362 24 208.562 22.944 208.562 21.664V21.056H207.922C207.346 23.072 205.522 24.416 202.738 24.416ZM199.282 19.168C199.282 21.152 201.074 22.24 203.026 22.24C206.898 22.24 208.242 19.232 208.242 16.736V16.256H202.898C200.434 16.256 199.282 17.504 199.282 19.168ZM224.741 24V7.68H227.269V10.432H227.909C228.421 8.768 230.021 7.264 232.613 7.264C235.237 7.264 237.029 8.736 237.765 10.432H238.469C239.141 8.704 240.677 7.264 243.269 7.264C246.981 7.264 249.221 10.048 249.221 13.408V24H246.693V13.92C246.693 11.2 245.029 9.6 242.533 9.6C240.197 9.6 238.277 11.264 238.277 14.4V24H235.749V13.888C235.749 11.2 233.829 9.6 231.493 9.6C229.061 9.6 227.269 11.552 227.269 14.4V24H224.741ZM261.222 24.416C256.294 24.416 252.742 20.896 252.742 15.84C252.742 10.816 256.294 7.264 261.222 7.264C266.15 7.264 269.702 10.816 269.702 15.84C269.702 20.896 266.15 24.416 261.222 24.416ZM255.334 15.84C255.334 19.616 257.798 22.144 261.222 22.144C264.646 22.144 267.11 19.616 267.11 15.84C267.11 12.192 264.646 9.536 261.222 9.536C257.798 9.536 255.334 12.192 255.334 15.84ZM273.554 24V7.68H276.082V10.432H276.722C277.234 8.768 278.834 7.264 281.426 7.264C284.05 7.264 285.842 8.736 286.578 10.432H287.282C287.954 8.704 289.49 7.264 292.082 7.264C295.794 7.264 298.034 10.048 298.034 13.408V24H295.506V13.92C295.506 11.2 293.842 9.6 291.346 9.6C289.01 9.6 287.09 11.264 287.09 14.4V24H284.562V13.888C284.562 11.2 282.642 9.6 280.306 9.6C277.874 9.6 276.082 11.552 276.082 14.4V24H273.554ZM309.651 24.416C304.691 24.416 301.555 20.736 301.555 15.68C301.555 10.432 305.267 7.264 309.555 7.264C314.547 7.264 317.459 11.008 317.203 15.52L317.139 16.64H304.051C304.371 19.904 306.259 22.144 309.651 22.144C311.859 22.144 313.587 21.248 314.739 19.36L316.627 20.576C315.379 22.88 312.851 24.416 309.651 24.416ZM304.115 14.4H314.739C314.739 11.616 312.563 9.472 309.555 9.472C306.387 9.472 304.531 11.616 304.115 14.4ZM321.054 24V7.68H323.582V10.432H324.222C324.734 8.768 326.398 7.264 328.99 7.264C332.894 7.264 335.07 10.144 335.07 13.408V24H332.542V13.92C332.542 11.328 330.59 9.6 328.254 9.6C325.502 9.6 323.582 11.616 323.582 14.4V24H321.054ZM344.986 24C342.842 24 341.082 22.624 341.082 19.968V9.792H338.266V7.68H341.146V3.968H343.578V7.68H348.698V9.792H343.578V19.968C343.578 21.28 344.378 21.792 345.37 21.792H348.474V24H344.986ZM359.754 24.416C354.826 24.416 351.274 20.896 351.274 15.84C351.274 10.816 354.826 7.264 359.754 7.264C364.682 7.264 368.234 10.816 368.234 15.84C368.234 20.896 364.682 24.416 359.754 24.416ZM353.866 15.84C353.866 19.616 356.33 22.144 359.754 22.144C363.178 22.144 365.642 19.616 365.642 15.84C365.642 12.192 363.178 9.536 359.754 9.536C356.33 9.536 353.866 12.192 353.866 15.84Z" fill="#001D4B"/>
</svg>
