<svg width="372" height="31" viewBox="0 0 372 31" fill="none" xmlns="http://www.w3.org/2000/svg">
<path d="M-2.3365e-05 24V1.6H13.92V5.44H4.12798V11.328H12.832V15.136H4.12798V24H-2.3365e-05ZM21.698 24.416C20.0553 24.416 18.69 23.9253 17.602 22.944C16.514 21.9627 15.97 20.672 15.97 19.072C15.97 17.5147 16.5246 16.2667 17.634 15.328C18.7433 14.368 20.2366 13.888 22.114 13.888H26.786V13.472C26.786 12.576 26.4873 11.84 25.89 11.264C25.2926 10.688 24.4926 10.4 23.49 10.4C22.5513 10.4 21.8046 10.6453 21.25 11.136C20.7166 11.6053 20.386 12.16 20.258 12.8L16.706 11.808C17.1113 10.2933 17.9113 9.12 19.106 8.288C20.322 7.43467 21.7833 7.008 23.49 7.008C25.7513 7.008 27.5113 7.648 28.77 8.928C30.05 10.208 30.69 11.7227 30.69 13.472V20.032C30.69 20.544 30.9673 20.8 31.522 20.8H32.034V24H29.698C28.8873 24 28.2473 23.776 27.778 23.328C27.33 22.8587 27.106 22.2507 27.106 21.504V20.768H26.466C26.2953 21.8987 25.7833 22.7947 24.93 23.456C24.098 24.096 23.0206 24.416 21.698 24.416ZM20.002 18.976C20.002 19.616 20.2473 20.1387 20.738 20.544C21.25 20.9493 21.9006 21.152 22.69 21.152C24.034 21.152 25.0473 20.7893 25.73 20.064C26.434 19.3173 26.786 18.3893 26.786 17.28V16.864H22.626C21.8153 16.864 21.1753 17.0453 20.706 17.408C20.2366 17.7493 20.002 18.272 20.002 18.976ZM42.7685 30.976C42.1711 30.976 41.6058 30.816 41.0725 30.496C40.5605 30.1973 40.1765 29.792 39.9205 29.28L41.6805 28.32C41.8938 28.704 42.2138 28.896 42.6405 28.896C42.9391 28.896 43.1951 28.8 43.4085 28.608C43.6218 28.416 43.7285 28.1493 43.7285 27.808C43.7285 27.5093 43.6218 27.264 43.4085 27.072C43.1951 26.88 42.9391 26.784 42.6405 26.784C42.2351 26.784 41.9258 26.9547 41.7125 27.296L39.7605 26.304L40.4325 24.224C38.3631 23.84 36.6991 22.88 35.4405 21.344C34.1818 19.7867 33.5525 17.9093 33.5525 15.712C33.5525 13.216 34.3738 11.1467 36.0165 9.504C37.6805 7.84 39.7925 7.008 42.3525 7.008C44.2085 7.008 45.8191 7.456 47.1845 8.352C48.5711 9.22667 49.5738 10.4533 50.1925 12.032L46.7365 13.824C46.4378 12.8853 45.8938 12.128 45.1045 11.552C44.3151 10.9547 43.3978 10.656 42.3525 10.656C40.9871 10.656 39.8565 11.136 38.9605 12.096C38.0645 13.0347 37.6165 14.24 37.6165 15.712C37.6165 17.2267 38.0645 18.4533 38.9605 19.392C39.8565 20.3093 40.9871 20.768 42.3525 20.768C43.3978 20.768 44.3258 20.4907 45.1365 19.936C45.9471 19.36 46.5125 18.56 46.8325 17.536L50.3525 19.2C49.7765 20.7787 48.8058 22.0267 47.4405 22.944C46.0965 23.8613 44.5391 24.352 42.7685 24.416L42.1925 25.92H42.7045C42.9178 25.408 43.3445 25.152 43.9845 25.152C44.5605 25.152 45.0511 25.408 45.4565 25.92C45.8831 26.4533 46.0965 27.0933 46.0965 27.84C46.0965 28.8 45.7765 29.5573 45.1365 30.112C44.5178 30.688 43.7285 30.976 42.7685 30.976ZM58.2605 24.416C56.6178 24.416 55.2525 23.9253 54.1645 22.944C53.0765 21.9627 52.5325 20.672 52.5325 19.072C52.5325 17.5147 53.0871 16.2667 54.1965 15.328C55.3058 14.368 56.7991 13.888 58.6765 13.888H63.3485V13.472C63.3485 12.576 63.0498 11.84 62.4525 11.264C61.8551 10.688 61.0551 10.4 60.0525 10.4C59.1138 10.4 58.3671 10.6453 57.8125 11.136C57.2791 11.6053 56.9485 12.16 56.8205 12.8L53.2685 11.808C53.6738 10.2933 54.4738 9.12 55.6685 8.288C56.8845 7.43467 58.3458 7.008 60.0525 7.008C62.3138 7.008 64.0738 7.648 65.3325 8.928C66.6125 10.208 67.2525 11.7227 67.2525 13.472V20.032C67.2525 20.544 67.5298 20.8 68.0845 20.8H68.5965V24H66.2605C65.4498 24 64.8098 23.776 64.3405 23.328C63.8925 22.8587 63.6685 22.2507 63.6685 21.504V20.768H63.0285C62.8578 21.8987 62.3458 22.7947 61.4925 23.456C60.6605 24.096 59.5831 24.416 58.2605 24.416ZM56.5645 18.976C56.5645 19.616 56.8098 20.1387 57.3005 20.544C57.8125 20.9493 58.4631 21.152 59.2525 21.152C60.5965 21.152 61.6098 20.7893 62.2925 20.064C62.9965 19.3173 63.3485 18.3893 63.3485 17.28V16.864H59.1885C58.3778 16.864 57.7378 17.0453 57.2685 17.408C56.7991 17.7493 56.5645 18.272 56.5645 18.976ZM84.4147 24.416C82.5374 24.416 80.9694 23.968 79.7107 23.072C78.4521 22.176 77.6414 20.9387 77.2787 19.36L80.8627 18.432C81.0547 19.2853 81.4707 19.9253 82.1107 20.352C82.7507 20.7787 83.5294 20.992 84.4467 20.992C85.4707 20.992 86.2494 20.8213 86.7827 20.48C87.3161 20.1173 87.5827 19.68 87.5827 19.168C87.5827 18.272 86.9534 17.7067 85.6947 17.472L82.6867 16.864C81.4067 16.6293 80.3294 16.1173 79.4547 15.328C78.5801 14.5173 78.1427 13.4187 78.1427 12.032C78.1427 10.6027 78.7401 9.408 79.9347 8.448C81.1294 7.488 82.7187 7.008 84.7027 7.008C86.4947 7.008 87.9987 7.44533 89.2147 8.32C90.4307 9.17333 91.1987 10.336 91.5187 11.808L88.0307 12.736C87.9027 12.032 87.5294 11.456 86.9107 11.008C86.3134 10.5387 85.5774 10.304 84.7027 10.304C83.8707 10.304 83.2094 10.4747 82.7187 10.816C82.2494 11.1573 82.0147 11.5627 82.0147 12.032C82.0147 12.8427 82.6441 13.376 83.9027 13.632L86.7187 14.176C89.9187 14.7947 91.5187 16.4587 91.5187 19.168C91.5187 20.768 90.8787 22.048 89.5987 23.008C88.3187 23.9467 86.5907 24.416 84.4147 24.416ZM100.298 24.416C98.5271 24.416 97.1617 23.8613 96.2017 22.752C95.2631 21.6213 94.7937 20.2453 94.7937 18.624V7.424H98.7937V17.216C98.7937 18.2187 99.1031 19.0293 99.7217 19.648C100.34 20.2667 101.13 20.576 102.09 20.576C103.114 20.576 103.946 20.2453 104.586 19.584C105.247 18.9227 105.578 18.08 105.578 17.056V7.424H109.578V24H105.578V20.832H104.938C104.66 21.8773 104.106 22.7413 103.274 23.424C102.463 24.0853 101.471 24.416 100.298 24.416ZM118.448 24.416C116.805 24.416 115.44 23.9253 114.352 22.944C113.264 21.9627 112.72 20.672 112.72 19.072C112.72 17.5147 113.275 16.2667 114.384 15.328C115.493 14.368 116.987 13.888 118.864 13.888H123.536V13.472C123.536 12.576 123.237 11.84 122.64 11.264C122.043 10.688 121.243 10.4 120.24 10.4C119.301 10.4 118.555 10.6453 118 11.136C117.467 11.6053 117.136 12.16 117.008 12.8L113.456 11.808C113.861 10.2933 114.661 9.12 115.856 8.288C117.072 7.43467 118.533 7.008 120.24 7.008C122.501 7.008 124.261 7.648 125.52 8.928C126.8 10.208 127.44 11.7227 127.44 13.472V20.032C127.44 20.544 127.717 20.8 128.272 20.8H128.784V24H126.448C125.637 24 124.997 23.776 124.528 23.328C124.08 22.8587 123.856 22.2507 123.856 21.504V20.768H123.216C123.045 21.8987 122.533 22.7947 121.68 23.456C120.848 24.096 119.771 24.416 118.448 24.416ZM116.752 18.976C116.752 19.616 116.997 20.1387 117.488 20.544C118 20.9493 118.651 21.152 119.44 21.152C120.784 21.152 121.797 20.7893 122.48 20.064C123.184 19.3173 123.536 18.3893 123.536 17.28V16.864H119.376C118.565 16.864 117.925 17.0453 117.456 17.408C116.987 17.7493 116.752 18.272 116.752 18.976ZM144.602 24.416C142.725 24.416 141.157 23.968 139.898 23.072C138.64 22.176 137.829 20.9387 137.466 19.36L141.05 18.432C141.242 19.2853 141.658 19.9253 142.298 20.352C142.938 20.7787 143.717 20.992 144.634 20.992C145.658 20.992 146.437 20.8213 146.97 20.48C147.504 20.1173 147.77 19.68 147.77 19.168C147.77 18.272 147.141 17.7067 145.882 17.472L142.874 16.864C141.594 16.6293 140.517 16.1173 139.642 15.328C138.768 14.5173 138.33 13.4187 138.33 12.032C138.33 10.6027 138.928 9.408 140.122 8.448C141.317 7.488 142.906 7.008 144.89 7.008C146.682 7.008 148.186 7.44533 149.402 8.32C150.618 9.17333 151.386 10.336 151.706 11.808L148.218 12.736C148.09 12.032 147.717 11.456 147.098 11.008C146.501 10.5387 145.765 10.304 144.89 10.304C144.058 10.304 143.397 10.4747 142.906 10.816C142.437 11.1573 142.202 11.5627 142.202 12.032C142.202 12.8427 142.832 13.376 144.09 13.632L146.906 14.176C150.106 14.7947 151.706 16.4587 151.706 19.168C151.706 20.768 151.066 22.048 149.786 23.008C148.506 23.9467 146.778 24.416 144.602 24.416ZM162.917 24.416C160.336 24.416 158.203 23.5947 156.517 21.952C154.853 20.3093 154.021 18.2293 154.021 15.712C154.021 13.1947 154.853 11.1147 156.517 9.472C158.203 7.82933 160.336 7.008 162.917 7.008C165.413 7.008 167.515 7.84 169.221 9.504C170.949 11.1467 171.813 13.216 171.813 15.712C171.813 18.208 170.949 20.288 169.221 21.952C167.515 23.5947 165.413 24.416 162.917 24.416ZM158.085 15.712C158.085 17.2267 158.544 18.4533 159.461 19.392C160.379 20.3093 161.531 20.768 162.917 20.768C164.304 20.768 165.456 20.3093 166.373 19.392C167.291 18.4533 167.749 17.2267 167.749 15.712C167.749 14.24 167.28 13.0347 166.341 12.096C165.424 11.136 164.283 10.656 162.917 10.656C161.552 10.656 160.4 11.136 159.461 12.096C158.544 13.0347 158.085 14.24 158.085 15.712ZM174.608 24V-1.90735e-06H178.608V24H174.608ZM182.356 24V7.424H186.356V24H182.356ZM182.324 4.8V0.447998H186.388V4.8H182.324ZM197.852 24.416C195.292 24.416 193.18 23.5947 191.516 21.952C189.874 20.3093 189.052 18.2293 189.052 15.712C189.052 13.216 189.874 11.1467 191.516 9.504C193.18 7.84 195.292 7.008 197.852 7.008C199.708 7.008 201.319 7.456 202.684 8.352C204.071 9.22667 205.074 10.4533 205.692 12.032L202.236 13.824C201.938 12.8853 201.394 12.128 200.604 11.552C199.815 10.9547 198.898 10.656 197.852 10.656C196.487 10.656 195.356 11.136 194.46 12.096C193.564 13.0347 193.116 14.24 193.116 15.712C193.116 17.2267 193.564 18.4533 194.46 19.392C195.356 20.3093 196.487 20.768 197.852 20.768C198.898 20.768 199.826 20.4907 200.636 19.936C201.447 19.36 202.012 18.56 202.332 17.536L205.852 19.2C205.255 20.8427 204.242 22.1227 202.812 23.04C201.383 23.9573 199.73 24.416 197.852 24.416ZM208.512 24V7.424H212.512V24H208.512ZM208.48 4.8V0.447998H212.544V4.8H208.48ZM223.241 24C219.806 24 218.089 22.368 218.089 19.104V10.784H215.081V7.424H218.153V3.712H222.057V7.424H226.729V10.784H222.057V18.72C222.057 19.8293 222.601 20.384 223.689 20.384H226.473V24H223.241ZM234.948 24.416C233.305 24.416 231.94 23.9253 230.852 22.944C229.764 21.9627 229.22 20.672 229.22 19.072C229.22 17.5147 229.775 16.2667 230.884 15.328C231.993 14.368 233.487 13.888 235.364 13.888H240.036V13.472C240.036 12.576 239.737 11.84 239.14 11.264C238.543 10.688 237.743 10.4 236.74 10.4C235.801 10.4 235.055 10.6453 234.5 11.136C233.967 11.6053 233.636 12.16 233.508 12.8L229.956 11.808C230.361 10.2933 231.161 9.12 232.356 8.288C233.572 7.43467 235.033 7.008 236.74 7.008C239.001 7.008 240.761 7.648 242.02 8.928C243.3 10.208 243.94 11.7227 243.94 13.472V20.032C243.94 20.544 244.217 20.8 244.772 20.8H245.284V24H242.948C242.137 24 241.497 23.776 241.028 23.328C240.58 22.8587 240.356 22.2507 240.356 21.504V20.768H239.716C239.545 21.8987 239.033 22.7947 238.18 23.456C237.348 24.096 236.271 24.416 234.948 24.416ZM233.252 18.976C233.252 19.616 233.497 20.1387 233.988 20.544C234.5 20.9493 235.151 21.152 235.94 21.152C237.284 21.152 238.297 20.7893 238.98 20.064C239.684 19.3173 240.036 18.3893 240.036 17.28V16.864H235.876C235.065 16.864 234.425 17.0453 233.956 17.408C233.487 17.7493 233.252 18.272 233.252 18.976ZM256.018 30.976C255.421 30.976 254.856 30.816 254.322 30.496C253.81 30.1973 253.426 29.792 253.17 29.28L254.93 28.32C255.144 28.704 255.464 28.896 255.89 28.896C256.189 28.896 256.445 28.8 256.658 28.608C256.872 28.416 256.978 28.1493 256.978 27.808C256.978 27.5093 256.872 27.264 256.658 27.072C256.445 26.88 256.189 26.784 255.89 26.784C255.485 26.784 255.176 26.9547 254.962 27.296L253.01 26.304L253.682 24.224C251.613 23.84 249.949 22.88 248.69 21.344C247.432 19.7867 246.802 17.9093 246.802 15.712C246.802 13.216 247.624 11.1467 249.266 9.504C250.93 7.84 253.042 7.008 255.602 7.008C257.458 7.008 259.069 7.456 260.434 8.352C261.821 9.22667 262.824 10.4533 263.442 12.032L259.986 13.824C259.688 12.8853 259.144 12.128 258.354 11.552C257.565 10.9547 256.648 10.656 255.602 10.656C254.237 10.656 253.106 11.136 252.21 12.096C251.314 13.0347 250.866 14.24 250.866 15.712C250.866 17.2267 251.314 18.4533 252.21 19.392C253.106 20.3093 254.237 20.768 255.602 20.768C256.648 20.768 257.576 20.4907 258.386 19.936C259.197 19.36 259.762 18.56 260.082 17.536L263.602 19.2C263.026 20.7787 262.056 22.0267 260.69 22.944C259.346 23.8613 257.789 24.352 256.018 24.416L255.442 25.92H255.954C256.168 25.408 256.594 25.152 257.234 25.152C257.81 25.152 258.301 25.408 258.706 25.92C259.133 26.4533 259.346 27.0933 259.346 27.84C259.346 28.8 259.026 29.5573 258.386 30.112C257.768 30.688 256.978 30.976 256.018 30.976ZM271.51 24.416C269.868 24.416 268.502 23.9253 267.414 22.944C266.326 21.9627 265.782 20.672 265.782 19.072C265.782 17.5147 266.337 16.2667 267.446 15.328C268.556 14.368 270.049 13.888 271.926 13.888H276.598V13.472C276.598 12.576 276.3 11.84 275.702 11.264C275.105 10.688 274.305 10.4 273.302 10.4C272.364 10.4 271.617 10.6453 271.062 11.136C270.529 11.6053 270.198 12.16 270.07 12.8L266.518 11.808C266.924 10.2933 267.724 9.12 268.918 8.288C270.134 7.43467 271.596 7.008 273.302 7.008C275.564 7.008 277.324 7.648 278.582 8.928C279.862 10.208 280.502 11.7227 280.502 13.472V20.032C280.502 20.544 280.78 20.8 281.334 20.8H281.846V24H279.51C278.7 24 278.06 23.776 277.59 23.328C277.142 22.8587 276.918 22.2507 276.918 21.504V20.768H276.278C276.108 21.8987 275.596 22.7947 274.742 23.456C273.91 24.096 272.833 24.416 271.51 24.416ZM268.022 4.352C268.044 3.22133 268.353 2.34667 268.95 1.728C269.569 1.088 270.316 0.768 271.19 0.768C271.83 0.768 272.534 0.991999 273.302 1.44L274.102 1.92C274.614 2.21866 274.988 2.368 275.222 2.368C275.969 2.368 276.342 1.87733 276.342 0.895998H276.886L278.646 1.728C278.646 2.83733 278.337 3.712 277.718 4.352C277.121 4.992 276.396 5.312 275.542 5.312C274.86 5.312 274.166 5.088 273.462 4.64L272.694 4.16C272.225 3.86133 271.83 3.712 271.51 3.712C271.148 3.712 270.86 3.85067 270.646 4.128C270.433 4.384 270.326 4.736 270.326 5.184H269.782L268.022 4.352ZM269.814 18.976C269.814 19.616 270.06 20.1387 270.55 20.544C271.062 20.9493 271.713 21.152 272.502 21.152C273.846 21.152 274.86 20.7893 275.542 20.064C276.246 19.3173 276.598 18.3893 276.598 17.28V16.864H272.438C271.628 16.864 270.988 17.0453 270.518 17.408C270.049 17.7493 269.814 18.272 269.814 18.976ZM292.261 24.416C289.68 24.416 287.546 23.5947 285.861 21.952C284.197 20.3093 283.365 18.2293 283.365 15.712C283.365 13.1947 284.197 11.1147 285.861 9.472C287.546 7.82933 289.68 7.008 292.261 7.008C294.757 7.008 296.858 7.84 298.565 9.504C300.293 11.1467 301.157 13.216 301.157 15.712C301.157 18.208 300.293 20.288 298.565 21.952C296.858 23.5947 294.757 24.416 292.261 24.416ZM287.429 15.712C287.429 17.2267 287.888 18.4533 288.805 19.392C289.722 20.3093 290.874 20.768 292.261 20.768C293.648 20.768 294.8 20.3093 295.717 19.392C296.634 18.4533 297.093 17.2267 297.093 15.712C297.093 14.24 296.624 13.0347 295.685 12.096C294.768 11.136 293.626 10.656 292.261 10.656C290.896 10.656 289.744 11.136 288.805 12.096C287.888 13.0347 287.429 14.24 287.429 15.712ZM315.948 24.416C314.305 24.416 312.94 23.9253 311.852 22.944C310.764 21.9627 310.22 20.672 310.22 19.072C310.22 17.5147 310.775 16.2667 311.884 15.328C312.993 14.368 314.487 13.888 316.364 13.888H321.036V13.472C321.036 12.576 320.737 11.84 320.14 11.264C319.543 10.688 318.743 10.4 317.74 10.4C316.801 10.4 316.055 10.6453 315.5 11.136C314.967 11.6053 314.636 12.16 314.508 12.8L310.956 11.808C311.361 10.2933 312.161 9.12 313.356 8.288C314.572 7.43467 316.033 7.008 317.74 7.008C320.001 7.008 321.761 7.648 323.02 8.928C324.3 10.208 324.94 11.7227 324.94 13.472V20.032C324.94 20.544 325.217 20.8 325.772 20.8H326.284V24H323.948C323.137 24 322.497 23.776 322.028 23.328C321.58 22.8587 321.356 22.2507 321.356 21.504V20.768H320.716C320.545 21.8987 320.033 22.7947 319.18 23.456C318.348 24.096 317.271 24.416 315.948 24.416ZM314.252 18.976C314.252 19.616 314.497 20.1387 314.988 20.544C315.5 20.9493 316.151 21.152 316.94 21.152C318.284 21.152 319.297 20.7893 319.98 20.064C320.684 19.3173 321.036 18.3893 321.036 17.28V16.864H316.876C316.065 16.864 315.425 17.0453 314.956 17.408C314.487 17.7493 314.252 18.272 314.252 18.976ZM335.226 7.008C336.464 7.008 337.541 7.328 338.458 7.968C339.397 8.608 340.026 9.48267 340.346 10.592H341.018V7.424H344.986V30.72H341.018V20.832H340.378C340.016 21.9627 339.386 22.848 338.49 23.488C337.594 24.1067 336.506 24.416 335.226 24.416C333.029 24.416 331.237 23.5947 329.85 21.952C328.485 20.288 327.802 18.208 327.802 15.712C327.802 13.216 328.485 11.1467 329.85 9.504C331.237 7.84 333.029 7.008 335.226 7.008ZM331.866 15.712C331.866 17.2053 332.314 18.4213 333.21 19.36C334.106 20.2987 335.216 20.768 336.538 20.768C337.84 20.768 338.938 20.3093 339.834 19.392C340.73 18.4533 341.178 17.2267 341.178 15.712C341.178 14.2613 340.73 13.056 339.834 12.096C338.96 11.136 337.861 10.656 336.538 10.656C335.194 10.656 334.074 11.1253 333.178 12.064C332.304 12.9813 331.866 14.1973 331.866 15.712ZM354.141 24.416C352.371 24.416 351.005 23.8613 350.045 22.752C349.107 21.6213 348.637 20.2453 348.637 18.624V7.424H352.637V17.216C352.637 18.2187 352.947 19.0293 353.565 19.648C354.184 20.2667 354.973 20.576 355.933 20.576C356.957 20.576 357.789 20.2453 358.429 19.584C359.091 18.9227 359.421 18.08 359.421 17.056V7.424H363.421V24H359.421V20.832H358.781C358.504 21.8773 357.949 22.7413 357.117 23.424C356.307 24.0853 355.315 24.416 354.141 24.416ZM367.044 24V7.424H371.044V24H367.044ZM367.012 4.8V0.447998H371.076V4.8H367.012Z" fill="#001D4B"/>
</svg>
