<svg width="475" height="94" viewBox="0 0 475 94" fill="none" xmlns="http://www.w3.org/2000/svg">
<path d="M458.7 7.93202C458.7 6.83462 458.905 5.80745 459.319 4.84174C459.733 3.87602 460.295 3.03761 461.005 2.3221C461.716 1.6066 462.552 1.04034 463.506 0.623324C464.465 0.206312 465.485 0 466.574 0C467.663 0 468.683 0.206312 469.641 0.623324C470.6 1.04034 471.432 1.6066 472.142 2.3221C472.853 3.03761 473.415 3.88041 473.829 4.84174C474.243 5.80745 474.447 6.83462 474.447 7.93202C474.447 9.02942 474.243 10.0566 473.829 11.0223C473.415 11.988 472.853 12.8264 472.142 13.5419C471.432 14.2574 470.596 14.8237 469.641 15.2407C468.683 15.6577 467.663 15.864 466.574 15.864C465.485 15.864 464.465 15.6577 463.506 15.2407C462.548 14.8237 461.716 14.2574 461.005 13.5419C460.295 12.8264 459.733 11.9836 459.319 11.0223C458.905 10.0566 458.7 9.02942 458.7 7.93202ZM472.883 7.93202C472.883 7.04093 472.718 6.20252 472.382 5.41239C472.047 4.62226 471.598 3.93748 471.031 3.35366C470.465 2.76984 469.798 2.30454 469.031 1.96215C468.265 1.61977 467.445 1.44857 466.574 1.44857C465.702 1.44857 464.883 1.61977 464.116 1.96215C463.35 2.30454 462.679 2.76984 462.116 3.35366C461.55 3.93748 461.101 4.62665 460.766 5.41239C460.43 6.20252 460.265 7.04093 460.265 7.93202C460.265 8.82311 460.43 9.66153 460.766 10.4517C461.101 11.2418 461.55 11.9266 462.116 12.5104C462.683 13.0942 463.35 13.5595 464.116 13.9019C464.883 14.2443 465.702 14.4155 466.574 14.4155C467.445 14.4155 468.265 14.2443 469.031 13.9019C469.798 13.5595 470.469 13.0942 471.031 12.5104C471.598 11.9266 472.047 11.2374 472.382 10.4517C472.713 9.66153 472.883 8.82311 472.883 7.93202ZM463.594 12.5587V3.30976H467.075C469.18 3.30976 470.23 4.17891 470.23 5.91719C470.23 6.35615 470.169 6.72927 470.047 7.03654C469.925 7.34381 469.755 7.59841 469.537 7.80472C469.319 8.01103 469.071 8.16467 468.787 8.27441C468.504 8.38415 468.204 8.45877 467.885 8.50267L470.517 12.5587H468.779L466.147 8.54657H465.036V12.5587H463.598H463.594ZM465.031 4.62665V7.23407H466.661C467.371 7.23407 467.903 7.12872 468.26 6.91802C468.617 6.70732 468.792 6.35176 468.792 5.85574C468.792 5.43433 468.635 5.12267 468.325 4.92514C468.012 4.72761 467.611 4.63104 467.119 4.63104H465.031V4.62665Z" fill="white"/>
<path d="M15.7077 65.3525C15.7077 75.4969 19.5464 80.5669 27.2282 80.5669C31.2847 80.5669 34.6049 79.1797 37.1931 76.4055C39.6942 73.4601 40.949 69.7289 40.949 65.2208V27.5053H56.6611V90.8166H41.0798V88.2574C41.0798 87.4059 41.1451 86.484 41.2715 85.5052C41.4022 84.5219 41.5503 83.4333 41.7246 82.2393C37.8598 89.5173 31.4634 93.1519 22.5355 93.1519C15.9256 93.1519 10.5139 90.9 6.30924 86.405C2.10018 82.1691 0 75.9402 0 67.7229V27.5053H15.7121V65.3525H15.7077Z" fill="white"/>
<path d="M81.4406 30.3585C81.4406 32.7816 81.2663 34.8579 80.9265 36.5874C84.9612 29.1514 91.4012 25.429 100.242 25.429C107.109 25.429 112.56 27.7204 116.599 32.3031C120.464 36.8903 122.394 43.0708 122.394 50.8536V90.8122H106.682V53.1889C106.682 48.4349 105.606 44.7125 103.462 42.0305C101.401 39.3484 98.5252 38.0096 94.8347 38.0096C91.1441 38.0096 87.7934 39.524 85.3055 42.5485C82.7303 45.5773 81.4406 49.2953 81.4406 53.7069V90.8122H65.7285V27.5053H81.4406V30.3585Z" fill="white"/>
<path d="M147.117 0V90.8166H131.405V0H147.117Z" fill="white"/>
<path d="M155.801 1.29932H172.284V17.9052H155.801V1.29932ZM171.901 27.5053V90.8166H156.188V27.5053H171.901Z" fill="white"/>
<path d="M196.68 30.3585C196.68 33.0406 196.506 35.1169 196.166 36.5874C200.458 29.1514 206.51 25.429 214.322 25.429C217.756 25.429 221.102 26.5966 224.366 28.9319C225.825 30.0556 227.089 31.3111 228.165 32.6938C229.237 34.0765 230.117 35.5909 230.806 37.2327C235.524 29.3621 242.309 25.4246 251.154 25.4246C257.507 25.4246 262.7 27.7599 266.735 32.4304C270.77 37.2765 272.787 43.4571 272.787 50.9809V90.8122H257.075V53.3162C257.075 43.1103 253.598 38.0052 246.644 38.0052C243.123 38.0052 240.291 39.4757 238.143 42.4168C235.825 45.4456 234.666 49.2909 234.666 53.9614V90.8078H218.954V53.3118C218.954 43.1059 215.477 38.0008 208.523 38.0008C205.002 38.0008 202.17 39.4275 200.022 42.2807C197.787 45.3095 196.676 49.2031 196.676 53.9571V90.8034H180.964V27.5053H196.676V30.3585H196.68Z" fill="white"/>
<path d="M280.369 1.29932H296.852V17.9052H280.369V1.29932ZM296.469 27.5053V90.8166H280.757V27.5053H296.469Z" fill="white"/>
<path d="M314.25 4.67055H329.963V27.5053H344.498V40.0903H329.963V68.8554C329.963 75.8875 333.052 79.3992 339.235 79.3992C340.864 79.3992 342.455 79.2675 344.001 79.0086V90.8254C341.509 91.5936 338.42 91.9798 334.729 91.9798C321.078 91.9798 314.255 85.0179 314.255 71.0941V40.0859H300.878V27.5009H314.255V4.67055H314.25Z" fill="white"/>
<path d="M380.258 51.2443C384.894 50.6385 387.212 48.7378 387.212 45.5378C387.212 43.1191 386.266 41.1262 384.38 39.5679C382.401 38.0096 379.914 37.2327 376.911 37.2327C369.186 37.2327 364.977 40.8233 364.293 48.0004H348.067C348.581 41.2535 351.369 35.806 356.437 31.6535C361.413 27.5009 367.94 25.4246 376.009 25.4246C393.952 25.4246 402.924 34.8096 402.924 53.5795V90.8122H388.371V88.2179C388.371 87.5288 388.436 86.6596 388.563 85.6237C388.689 84.5877 388.841 83.4201 389.011 82.1208C385.059 89.4734 378.192 93.1475 368.406 93.1475C362.655 93.1475 357.631 91.3741 353.339 87.8273C348.96 84.1093 346.773 79.3114 346.773 73.425C346.773 61.5774 354.929 54.5716 371.243 52.4075L380.258 51.2399V51.2443ZM362.742 72.7841C362.742 75.3783 363.687 77.4985 365.574 79.1402C367.378 80.6985 369.739 81.4755 372.659 81.4755C376.781 81.4755 380.341 80.0489 383.347 77.1956C386.266 74.3424 387.726 70.7078 387.726 66.2962V59.4221C386.436 60.6336 383.948 61.5423 380.258 62.1481L375.108 63.184C371.417 63.7898 368.367 64.8696 365.966 66.4279C363.818 67.9862 362.746 70.1064 362.746 72.7841H362.742Z" fill="white"/>
<path d="M411.294 1.29932H427.777V17.9052H411.294V1.29932ZM427.39 27.5053V90.8166H411.678V27.5053H427.39Z" fill="white"/>
<path d="M452.627 0V90.8166H436.914V0H452.627Z" fill="white"/>
</svg>
