<svg width="169" height="33" viewBox="0 0 169 33" fill="none" xmlns="http://www.w3.org/2000/svg">
<path d="M162.455 2.80924C162.455 2.42058 162.528 2.05679 162.674 1.71477C162.821 1.37275 163.02 1.07581 163.271 0.822405C163.523 0.568999 163.819 0.36845 164.157 0.220759C164.497 0.0730681 164.858 0 165.244 0C165.629 0 165.99 0.0730681 166.33 0.220759C166.669 0.36845 166.964 0.568999 167.216 0.822405C167.467 1.07581 167.666 1.3743 167.813 1.71477C167.96 2.05679 168.032 2.42058 168.032 2.80924C168.032 3.1979 167.96 3.56168 167.813 3.9037C167.666 4.24572 167.467 4.54266 167.216 4.79607C166.964 5.04947 166.668 5.25002 166.33 5.39771C165.99 5.5454 165.629 5.61847 165.244 5.61847C164.858 5.61847 164.497 5.5454 164.157 5.39771C163.818 5.25002 163.523 5.04947 163.271 4.79607C163.02 4.54266 162.821 4.24417 162.674 3.9037C162.528 3.56168 162.455 3.1979 162.455 2.80924ZM167.478 2.80924C167.478 2.49364 167.419 2.19671 167.301 1.91687C167.182 1.63704 167.023 1.39451 166.822 1.18775C166.622 0.980978 166.386 0.816186 166.114 0.694924C165.842 0.573663 165.552 0.513032 165.244 0.513032C164.935 0.513032 164.645 0.573663 164.373 0.694924C164.102 0.816186 163.864 0.980978 163.665 1.18775C163.464 1.39451 163.305 1.63859 163.187 1.91687C163.068 2.19671 163.009 2.49364 163.009 2.80924C163.009 3.12483 163.068 3.42176 163.187 3.7016C163.305 3.98144 163.464 4.22396 163.665 4.43073C163.866 4.63749 164.102 4.80229 164.373 4.92355C164.645 5.04481 164.935 5.10544 165.244 5.10544C165.552 5.10544 165.842 5.04481 166.114 4.92355C166.386 4.80229 166.623 4.63749 166.822 4.43073C167.023 4.22396 167.182 3.97988 167.301 3.7016C167.418 3.42176 167.478 3.12483 167.478 2.80924ZM164.188 4.44783V1.1722H165.421C166.166 1.1722 166.538 1.48002 166.538 2.09566C166.538 2.25112 166.517 2.38326 166.473 2.49209C166.43 2.60091 166.37 2.69108 166.293 2.76415C166.216 2.83722 166.128 2.89163 166.028 2.9305C165.927 2.96936 165.821 2.99579 165.708 3.01134L166.64 4.44783H166.024L165.092 3.02689H164.699V4.44783H164.19H164.188ZM164.697 1.63859V2.56205H165.274C165.526 2.56205 165.714 2.52474 165.841 2.45011C165.967 2.37549 166.029 2.24957 166.029 2.07389C166.029 1.92465 165.973 1.81427 165.864 1.74431C165.753 1.67435 165.611 1.64015 165.436 1.64015H164.697V1.63859Z" fill="#001D4B"/>
<path d="M5.56311 23.1455C5.56311 26.7383 6.92264 28.5339 9.64324 28.5339C11.0799 28.5339 12.2558 28.0426 13.1725 27.0601C14.0582 26.0169 14.5027 24.6955 14.5027 23.0989V9.74139H20.0673V32.164H14.549V31.2576C14.549 30.956 14.5721 30.6296 14.6169 30.2829C14.6632 29.9346 14.7156 29.5491 14.7774 29.1262C13.4086 31.7038 11.1432 32.9911 7.98125 32.9911C5.64027 32.9911 3.72366 32.1935 2.23451 30.6016C0.743808 29.1013 0 26.8953 0 23.985V9.74139H5.56466V23.1455H5.56311Z" fill="#001D4B"/>
<path d="M28.843 10.7519C28.843 11.6101 28.7812 12.3454 28.6609 12.9579C30.0899 10.3244 32.3707 9.00604 35.5017 9.00604C37.9338 9.00604 39.8643 9.81756 41.2948 11.4406C42.6636 13.0652 43.3472 15.2541 43.3472 18.0105V32.1624H37.7825V18.8376C37.7825 17.1539 37.4014 15.8356 36.6421 14.8857C35.9122 13.9358 34.8937 13.4616 33.5867 13.4616C32.2796 13.4616 31.0929 13.998 30.2118 15.0691C29.2998 16.1418 28.843 17.4586 28.843 19.021V32.1624H23.2783V9.74139H28.843V10.7519Z" fill="#001D4B"/>
<path d="M52.1032 0V32.164H46.5386V0H52.1032Z" fill="#001D4B"/>
<path d="M55.1787 0.460205H61.0165V6.34141H55.1787V0.460205ZM60.8807 9.74141V32.164H55.3161V9.74141H60.8807Z" fill="#001D4B"/>
<path d="M69.6568 10.7519C69.6568 11.7018 69.5951 12.4372 69.4747 12.958C70.9947 10.3244 73.1382 9.00607 75.9051 9.00607C77.1211 9.00607 78.3062 9.41961 79.462 10.2467C79.979 10.6447 80.4265 11.0893 80.8077 11.579C81.1873 12.0687 81.499 12.6051 81.7429 13.1865C83.4141 10.399 85.8168 9.00452 88.9494 9.00452C91.1994 9.00452 93.0388 9.83159 94.4678 11.4857C95.8968 13.202 96.6112 15.391 96.6112 18.0556V32.1625H91.0466V18.8827C91.0466 15.2682 89.8151 13.4601 87.3523 13.4601C86.1054 13.4601 85.1023 13.9809 84.3415 15.0225C83.5206 16.0952 83.1101 17.4571 83.1101 19.1112V32.1609H77.5454V18.8812C77.5454 15.2666 76.314 13.4586 73.8511 13.4586C72.6042 13.4586 71.6012 13.9638 70.8404 14.9743C70.0487 16.047 69.6552 17.426 69.6552 19.1097V32.1593H64.0906V9.74142H69.6552V10.7519H69.6568Z" fill="#001D4B"/>
<path d="M99.2964 0.460205H105.134V6.34141H99.2964V0.460205ZM104.998 9.74141V32.164H99.4337V9.74141H104.998Z" fill="#001D4B"/>
<path d="M111.296 1.65411H116.861V9.74136H122.009V14.1985H116.861V24.3861C116.861 26.8766 117.955 28.1203 120.145 28.1203C120.722 28.1203 121.285 28.0737 121.833 27.982V32.1671C120.95 32.4391 119.856 32.5759 118.549 32.5759C113.714 32.5759 111.298 30.1103 111.298 25.1789V14.197H106.56V9.7398H111.298V1.65411H111.296Z" fill="#001D4B"/>
<path d="M134.673 18.1489C136.315 17.9344 137.136 17.2612 137.136 16.1279C137.136 15.2713 136.801 14.5655 136.133 14.0136C135.433 13.4617 134.552 13.1865 133.488 13.1865C130.752 13.1865 129.262 14.4582 129.019 17H123.273C123.455 14.6106 124.442 12.6812 126.237 11.2106C127.999 9.73986 130.311 9.00452 133.169 9.00452C139.524 9.00452 142.701 12.3283 142.701 18.976V32.1625H137.547V31.2437C137.547 30.9996 137.57 30.6918 137.615 30.3249C137.659 29.958 137.713 29.5444 137.774 29.0843C136.374 31.6883 133.942 32.9895 130.476 32.9895C128.439 32.9895 126.66 32.3614 125.14 31.1053C123.589 29.7885 122.814 28.0893 122.814 26.0045C122.814 21.8085 125.703 19.3273 131.481 18.5609L134.673 18.1474V18.1489ZM128.47 25.7775C128.47 26.6963 128.805 27.4472 129.473 28.0287C130.112 28.5806 130.948 28.8557 131.982 28.8557C133.442 28.8557 134.703 28.3505 135.768 27.34C136.801 26.3294 137.318 25.0422 137.318 23.4798V21.0452C136.862 21.4743 135.98 21.7961 134.673 22.0106L132.849 22.3775C131.542 22.5921 130.462 22.9745 129.612 23.5264C128.851 24.0783 128.471 24.8292 128.471 25.7775H128.47Z" fill="#001D4B"/>
<path d="M145.665 0.460205H151.503V6.34141H145.665V0.460205ZM151.366 9.74141V32.164H145.801V9.74141H151.366Z" fill="#001D4B"/>
<path d="M160.304 0V32.164H154.74V0H160.304Z" fill="#001D4B"/>
</svg>
