<svg width="1440" height="178" viewBox="0 0 1440 178" fill="none" xmlns="http://www.w3.org/2000/svg">
<path d="M1453 90H1395V140C1395 160.987 1377.99 178 1357 178H970C949.013 178 932 160.987 932 140V90H-29V89H44V38C44 17.0132 61.0132 4.12327e-06 82 0H469C489.987 0 507 17.0132 507 38V89H1453V90Z" fill="url(#paint0_linear_102_4)"/>
<path d="M963.874 143V120.6H977.794V124.44H968.002V130.328H976.706V134.136H968.002V143H963.874ZM985.572 143.416C983.929 143.416 982.564 142.925 981.476 141.944C980.388 140.963 979.844 139.672 979.844 138.072C979.844 136.515 980.399 135.267 981.508 134.328C982.617 133.368 984.111 132.888 985.988 132.888H990.66V132.472C990.66 131.576 990.361 130.84 989.764 130.264C989.167 129.688 988.367 129.4 987.364 129.4C986.425 129.4 985.679 129.645 985.124 130.136C984.591 130.605 984.26 131.16 984.132 131.8L980.58 130.808C980.985 129.293 981.785 128.12 982.98 127.288C984.196 126.435 985.657 126.008 987.364 126.008C989.625 126.008 991.385 126.648 992.644 127.928C993.924 129.208 994.564 130.723 994.564 132.472V139.032C994.564 139.544 994.841 139.8 995.396 139.8H995.908V143H993.572C992.761 143 992.121 142.776 991.652 142.328C991.204 141.859 990.98 141.251 990.98 140.504V139.768H990.34C990.169 140.899 989.657 141.795 988.804 142.456C987.972 143.096 986.895 143.416 985.572 143.416ZM983.876 137.976C983.876 138.616 984.121 139.139 984.612 139.544C985.124 139.949 985.775 140.152 986.564 140.152C987.908 140.152 988.921 139.789 989.604 139.064C990.308 138.317 990.66 137.389 990.66 136.28V135.864H986.5C985.689 135.864 985.049 136.045 984.58 136.408C984.111 136.749 983.876 137.272 983.876 137.976ZM1006.64 149.976C1006.05 149.976 1005.48 149.816 1004.95 149.496C1004.43 149.197 1004.05 148.792 1003.79 148.28L1005.55 147.32C1005.77 147.704 1006.09 147.896 1006.51 147.896C1006.81 147.896 1007.07 147.8 1007.28 147.608C1007.5 147.416 1007.6 147.149 1007.6 146.808C1007.6 146.509 1007.5 146.264 1007.28 146.072C1007.07 145.88 1006.81 145.784 1006.51 145.784C1006.11 145.784 1005.8 145.955 1005.59 146.296L1003.63 145.304L1004.31 143.224C1002.24 142.84 1000.57 141.88 999.315 140.344C998.056 138.787 997.427 136.909 997.427 134.712C997.427 132.216 998.248 130.147 999.891 128.504C1001.55 126.84 1003.67 126.008 1006.23 126.008C1008.08 126.008 1009.69 126.456 1011.06 127.352C1012.45 128.227 1013.45 129.453 1014.07 131.032L1010.61 132.824C1010.31 131.885 1009.77 131.128 1008.98 130.552C1008.19 129.955 1007.27 129.656 1006.23 129.656C1004.86 129.656 1003.73 130.136 1002.83 131.096C1001.94 132.035 1001.49 133.24 1001.49 134.712C1001.49 136.227 1001.94 137.453 1002.83 138.392C1003.73 139.309 1004.86 139.768 1006.23 139.768C1007.27 139.768 1008.2 139.491 1009.01 138.936C1009.82 138.36 1010.39 137.56 1010.71 136.536L1014.23 138.2C1013.65 139.779 1012.68 141.027 1011.31 141.944C1009.97 142.861 1008.41 143.352 1006.64 143.416L1006.07 144.92H1006.58C1006.79 144.408 1007.22 144.152 1007.86 144.152C1008.43 144.152 1008.93 144.408 1009.33 144.92C1009.76 145.453 1009.97 146.093 1009.97 146.84C1009.97 147.8 1009.65 148.557 1009.01 149.112C1008.39 149.688 1007.6 149.976 1006.64 149.976ZM1022.13 143.416C1020.49 143.416 1019.13 142.925 1018.04 141.944C1016.95 140.963 1016.41 139.672 1016.41 138.072C1016.41 136.515 1016.96 135.267 1018.07 134.328C1019.18 133.368 1020.67 132.888 1022.55 132.888H1027.22V132.472C1027.22 131.576 1026.92 130.84 1026.33 130.264C1025.73 129.688 1024.93 129.4 1023.93 129.4C1022.99 129.4 1022.24 129.645 1021.69 130.136C1021.15 130.605 1020.82 131.16 1020.69 131.8L1017.14 130.808C1017.55 129.293 1018.35 128.12 1019.54 127.288C1020.76 126.435 1022.22 126.008 1023.93 126.008C1026.19 126.008 1027.95 126.648 1029.21 127.928C1030.49 129.208 1031.13 130.723 1031.13 132.472V139.032C1031.13 139.544 1031.4 139.8 1031.96 139.8H1032.47V143H1030.13C1029.32 143 1028.68 142.776 1028.21 142.328C1027.77 141.859 1027.54 141.251 1027.54 140.504V139.768H1026.9C1026.73 140.899 1026.22 141.795 1025.37 142.456C1024.53 143.096 1023.46 143.416 1022.13 143.416ZM1020.44 137.976C1020.44 138.616 1020.68 139.139 1021.17 139.544C1021.69 139.949 1022.34 140.152 1023.13 140.152C1024.47 140.152 1025.48 139.789 1026.17 139.064C1026.87 138.317 1027.22 137.389 1027.22 136.28V135.864H1023.06C1022.25 135.864 1021.61 136.045 1021.14 136.408C1020.67 136.749 1020.44 137.272 1020.44 137.976ZM1048.29 143.416C1046.41 143.416 1044.84 142.968 1043.58 142.072C1042.33 141.176 1041.52 139.939 1041.15 138.36L1044.74 137.432C1044.93 138.285 1045.34 138.925 1045.98 139.352C1046.62 139.779 1047.4 139.992 1048.32 139.992C1049.34 139.992 1050.12 139.821 1050.66 139.48C1051.19 139.117 1051.46 138.68 1051.46 138.168C1051.46 137.272 1050.83 136.707 1049.57 136.472L1046.56 135.864C1045.28 135.629 1044.2 135.117 1043.33 134.328C1042.45 133.517 1042.02 132.419 1042.02 131.032C1042.02 129.603 1042.61 128.408 1043.81 127.448C1045 126.488 1046.59 126.008 1048.58 126.008C1050.37 126.008 1051.87 126.445 1053.09 127.32C1054.3 128.173 1055.07 129.336 1055.39 130.808L1051.9 131.736C1051.78 131.032 1051.4 130.456 1050.78 130.008C1050.19 129.539 1049.45 129.304 1048.58 129.304C1047.74 129.304 1047.08 129.475 1046.59 129.816C1046.12 130.157 1045.89 130.563 1045.89 131.032C1045.89 131.843 1046.52 132.376 1047.78 132.632L1050.59 133.176C1053.79 133.795 1055.39 135.459 1055.39 138.168C1055.39 139.768 1054.75 141.048 1053.47 142.008C1052.19 142.947 1050.46 143.416 1048.29 143.416ZM1064.17 143.416C1062.4 143.416 1061.04 142.861 1060.08 141.752C1059.14 140.621 1058.67 139.245 1058.67 137.624V126.424H1062.67V136.216C1062.67 137.219 1062.98 138.029 1063.6 138.648C1064.21 139.267 1065 139.576 1065.96 139.576C1066.99 139.576 1067.82 139.245 1068.46 138.584C1069.12 137.923 1069.45 137.08 1069.45 136.056V126.424H1073.45V143H1069.45V139.832H1068.81C1068.53 140.877 1067.98 141.741 1067.15 142.424C1066.34 143.085 1065.35 143.416 1064.17 143.416ZM1082.32 143.416C1080.68 143.416 1079.31 142.925 1078.23 141.944C1077.14 140.963 1076.59 139.672 1076.59 138.072C1076.59 136.515 1077.15 135.267 1078.26 134.328C1079.37 133.368 1080.86 132.888 1082.74 132.888H1087.41V132.472C1087.41 131.576 1087.11 130.84 1086.51 130.264C1085.92 129.688 1085.12 129.4 1084.11 129.4C1083.18 129.4 1082.43 129.645 1081.87 130.136C1081.34 130.605 1081.01 131.16 1080.88 131.8L1077.33 130.808C1077.74 129.293 1078.54 128.12 1079.73 127.288C1080.95 126.435 1082.41 126.008 1084.11 126.008C1086.38 126.008 1088.14 126.648 1089.39 127.928C1090.67 129.208 1091.31 130.723 1091.31 132.472V139.032C1091.31 139.544 1091.59 139.8 1092.15 139.8H1092.66V143H1090.32C1089.51 143 1088.87 142.776 1088.4 142.328C1087.95 141.859 1087.73 141.251 1087.73 140.504V139.768H1087.09C1086.92 140.899 1086.41 141.795 1085.55 142.456C1084.72 143.096 1083.64 143.416 1082.32 143.416ZM1080.63 137.976C1080.63 138.616 1080.87 139.139 1081.36 139.544C1081.87 139.949 1082.52 140.152 1083.31 140.152C1084.66 140.152 1085.67 139.789 1086.35 139.064C1087.06 138.317 1087.41 137.389 1087.41 136.28V135.864H1083.25C1082.44 135.864 1081.8 136.045 1081.33 136.408C1080.86 136.749 1080.63 137.272 1080.63 137.976ZM1108.48 143.416C1106.6 143.416 1105.03 142.968 1103.77 142.072C1102.51 141.176 1101.7 139.939 1101.34 138.36L1104.92 137.432C1105.12 138.285 1105.53 138.925 1106.17 139.352C1106.81 139.779 1107.59 139.992 1108.51 139.992C1109.53 139.992 1110.31 139.821 1110.84 139.48C1111.38 139.117 1111.64 138.68 1111.64 138.168C1111.64 137.272 1111.01 136.707 1109.76 136.472L1106.75 135.864C1105.47 135.629 1104.39 135.117 1103.52 134.328C1102.64 133.517 1102.2 132.419 1102.2 131.032C1102.2 129.603 1102.8 128.408 1104 127.448C1105.19 126.488 1106.78 126.008 1108.76 126.008C1110.56 126.008 1112.06 126.445 1113.28 127.32C1114.49 128.173 1115.26 129.336 1115.58 130.808L1112.09 131.736C1111.96 131.032 1111.59 130.456 1110.97 130.008C1110.37 129.539 1109.64 129.304 1108.76 129.304C1107.93 129.304 1107.27 129.475 1106.78 129.816C1106.31 130.157 1106.08 130.563 1106.08 131.032C1106.08 131.843 1106.71 132.376 1107.96 132.632L1110.78 133.176C1113.98 133.795 1115.58 135.459 1115.58 138.168C1115.58 139.768 1114.94 141.048 1113.66 142.008C1112.38 142.947 1110.65 143.416 1108.48 143.416ZM1126.79 143.416C1124.21 143.416 1122.08 142.595 1120.39 140.952C1118.73 139.309 1117.9 137.229 1117.9 134.712C1117.9 132.195 1118.73 130.115 1120.39 128.472C1122.08 126.829 1124.21 126.008 1126.79 126.008C1129.29 126.008 1131.39 126.84 1133.1 128.504C1134.82 130.147 1135.69 132.216 1135.69 134.712C1135.69 137.208 1134.82 139.288 1133.1 140.952C1131.39 142.595 1129.29 143.416 1126.79 143.416ZM1121.96 134.712C1121.96 136.227 1122.42 137.453 1123.34 138.392C1124.25 139.309 1125.4 139.768 1126.79 139.768C1128.18 139.768 1129.33 139.309 1130.25 138.392C1131.16 137.453 1131.62 136.227 1131.62 134.712C1131.62 133.24 1131.15 132.035 1130.22 131.096C1129.3 130.136 1128.16 129.656 1126.79 129.656C1125.43 129.656 1124.27 130.136 1123.34 131.096C1122.42 132.035 1121.96 133.24 1121.96 134.712ZM1138.48 143V119H1142.48V143H1138.48ZM1146.23 143V126.424H1150.23V143H1146.23ZM1146.2 123.8V119.448H1150.26V123.8H1146.2ZM1161.73 143.416C1159.17 143.416 1157.05 142.595 1155.39 140.952C1153.75 139.309 1152.93 137.229 1152.93 134.712C1152.93 132.216 1153.75 130.147 1155.39 128.504C1157.05 126.84 1159.17 126.008 1161.73 126.008C1163.58 126.008 1165.19 126.456 1166.56 127.352C1167.95 128.227 1168.95 129.453 1169.57 131.032L1166.11 132.824C1165.81 131.885 1165.27 131.128 1164.48 130.552C1163.69 129.955 1162.77 129.656 1161.73 129.656C1160.36 129.656 1159.23 130.136 1158.33 131.096C1157.44 132.035 1156.99 133.24 1156.99 134.712C1156.99 136.227 1157.44 137.453 1158.33 138.392C1159.23 139.309 1160.36 139.768 1161.73 139.768C1162.77 139.768 1163.7 139.491 1164.51 138.936C1165.32 138.36 1165.89 137.56 1166.21 136.536L1169.73 138.2C1169.13 139.843 1168.12 141.123 1166.69 142.04C1165.26 142.957 1163.6 143.416 1161.73 143.416ZM1172.39 143V126.424H1176.39V143H1172.39ZM1172.35 123.8V119.448H1176.42V123.8H1172.35ZM1187.11 143C1183.68 143 1181.96 141.368 1181.96 138.104V129.784H1178.95V126.424H1182.03V122.712H1185.93V126.424H1190.6V129.784H1185.93V137.72C1185.93 138.829 1186.47 139.384 1187.56 139.384H1190.35V143H1187.11ZM1198.82 143.416C1197.18 143.416 1195.81 142.925 1194.73 141.944C1193.64 140.963 1193.09 139.672 1193.09 138.072C1193.09 136.515 1193.65 135.267 1194.76 134.328C1195.87 133.368 1197.36 132.888 1199.24 132.888H1203.91V132.472C1203.91 131.576 1203.61 130.84 1203.01 130.264C1202.42 129.688 1201.62 129.4 1200.61 129.4C1199.68 129.4 1198.93 129.645 1198.37 130.136C1197.84 130.605 1197.51 131.16 1197.38 131.8L1193.83 130.808C1194.24 129.293 1195.04 128.12 1196.23 127.288C1197.45 126.435 1198.91 126.008 1200.61 126.008C1202.88 126.008 1204.64 126.648 1205.89 127.928C1207.17 129.208 1207.81 130.723 1207.81 132.472V139.032C1207.81 139.544 1208.09 139.8 1208.65 139.8H1209.16V143H1206.82C1206.01 143 1205.37 142.776 1204.9 142.328C1204.45 141.859 1204.23 141.251 1204.23 140.504V139.768H1203.59C1203.42 140.899 1202.91 141.795 1202.05 142.456C1201.22 143.096 1200.14 143.416 1198.82 143.416ZM1197.13 137.976C1197.13 138.616 1197.37 139.139 1197.86 139.544C1198.37 139.949 1199.02 140.152 1199.81 140.152C1201.16 140.152 1202.17 139.789 1202.85 139.064C1203.56 138.317 1203.91 137.389 1203.91 136.28V135.864H1199.75C1198.94 135.864 1198.3 136.045 1197.83 136.408C1197.36 136.749 1197.13 137.272 1197.13 137.976ZM1219.89 149.976C1219.3 149.976 1218.73 149.816 1218.2 149.496C1217.68 149.197 1217.3 148.792 1217.04 148.28L1218.8 147.32C1219.02 147.704 1219.34 147.896 1219.76 147.896C1220.06 147.896 1220.32 147.8 1220.53 147.608C1220.75 147.416 1220.85 147.149 1220.85 146.808C1220.85 146.509 1220.75 146.264 1220.53 146.072C1220.32 145.88 1220.06 145.784 1219.76 145.784C1219.36 145.784 1219.05 145.955 1218.84 146.296L1216.88 145.304L1217.56 143.224C1215.49 142.84 1213.82 141.88 1212.56 140.344C1211.31 138.787 1210.68 136.909 1210.68 134.712C1210.68 132.216 1211.5 130.147 1213.14 128.504C1214.8 126.84 1216.92 126.008 1219.48 126.008C1221.33 126.008 1222.94 126.456 1224.31 127.352C1225.7 128.227 1226.7 129.453 1227.32 131.032L1223.86 132.824C1223.56 131.885 1223.02 131.128 1222.23 130.552C1221.44 129.955 1220.52 129.656 1219.48 129.656C1218.11 129.656 1216.98 130.136 1216.08 131.096C1215.19 132.035 1214.74 133.24 1214.74 134.712C1214.74 136.227 1215.19 137.453 1216.08 138.392C1216.98 139.309 1218.11 139.768 1219.48 139.768C1220.52 139.768 1221.45 139.491 1222.26 138.936C1223.07 138.36 1223.64 137.56 1223.96 136.536L1227.48 138.2C1226.9 139.779 1225.93 141.027 1224.56 141.944C1223.22 142.861 1221.66 143.352 1219.89 143.416L1219.32 144.92H1219.83C1220.04 144.408 1220.47 144.152 1221.11 144.152C1221.68 144.152 1222.18 144.408 1222.58 144.92C1223.01 145.453 1223.22 146.093 1223.22 146.84C1223.22 147.8 1222.9 148.557 1222.26 149.112C1221.64 149.688 1220.85 149.976 1219.89 149.976ZM1235.38 143.416C1233.74 143.416 1232.38 142.925 1231.29 141.944C1230.2 140.963 1229.66 139.672 1229.66 138.072C1229.66 136.515 1230.21 135.267 1231.32 134.328C1232.43 133.368 1233.92 132.888 1235.8 132.888H1240.47V132.472C1240.47 131.576 1240.17 130.84 1239.58 130.264C1238.98 129.688 1238.18 129.4 1237.18 129.4C1236.24 129.4 1235.49 129.645 1234.94 130.136C1234.4 130.605 1234.07 131.16 1233.94 131.8L1230.39 130.808C1230.8 129.293 1231.6 128.12 1232.79 127.288C1234.01 126.435 1235.47 126.008 1237.18 126.008C1239.44 126.008 1241.2 126.648 1242.46 127.928C1243.74 129.208 1244.38 130.723 1244.38 132.472V139.032C1244.38 139.544 1244.65 139.8 1245.21 139.8H1245.72V143H1243.38C1242.57 143 1241.93 142.776 1241.46 142.328C1241.02 141.859 1240.79 141.251 1240.79 140.504V139.768H1240.15C1239.98 140.899 1239.47 141.795 1238.62 142.456C1237.78 143.096 1236.71 143.416 1235.38 143.416ZM1231.9 123.352C1231.92 122.221 1232.23 121.347 1232.82 120.728C1233.44 120.088 1234.19 119.768 1235.06 119.768C1235.7 119.768 1236.41 119.992 1237.18 120.44L1237.98 120.92C1238.49 121.219 1238.86 121.368 1239.1 121.368C1239.84 121.368 1240.22 120.877 1240.22 119.896H1240.76L1242.52 120.728C1242.52 121.837 1242.21 122.712 1241.59 123.352C1241 123.992 1240.27 124.312 1239.42 124.312C1238.73 124.312 1238.04 124.088 1237.34 123.64L1236.57 123.16C1236.1 122.861 1235.7 122.712 1235.38 122.712C1235.02 122.712 1234.73 122.851 1234.52 123.128C1234.31 123.384 1234.2 123.736 1234.2 124.184H1233.66L1231.9 123.352ZM1233.69 137.976C1233.69 138.616 1233.93 139.139 1234.42 139.544C1234.94 139.949 1235.59 140.152 1236.38 140.152C1237.72 140.152 1238.73 139.789 1239.42 139.064C1240.12 138.317 1240.47 137.389 1240.47 136.28V135.864H1236.31C1235.5 135.864 1234.86 136.045 1234.39 136.408C1233.92 136.749 1233.69 137.272 1233.69 137.976ZM1256.14 143.416C1253.55 143.416 1251.42 142.595 1249.74 140.952C1248.07 139.309 1247.24 137.229 1247.24 134.712C1247.24 132.195 1248.07 130.115 1249.74 128.472C1251.42 126.829 1253.55 126.008 1256.14 126.008C1258.63 126.008 1260.73 126.84 1262.44 128.504C1264.17 130.147 1265.03 132.216 1265.03 134.712C1265.03 137.208 1264.17 139.288 1262.44 140.952C1260.73 142.595 1258.63 143.416 1256.14 143.416ZM1251.3 134.712C1251.3 136.227 1251.76 137.453 1252.68 138.392C1253.6 139.309 1254.75 139.768 1256.14 139.768C1257.52 139.768 1258.67 139.309 1259.59 138.392C1260.51 137.453 1260.97 136.227 1260.97 134.712C1260.97 133.24 1260.5 132.035 1259.56 131.096C1258.64 130.136 1257.5 129.656 1256.14 129.656C1254.77 129.656 1253.62 130.136 1252.68 131.096C1251.76 132.035 1251.3 133.24 1251.3 134.712ZM1279.82 143.416C1278.18 143.416 1276.81 142.925 1275.73 141.944C1274.64 140.963 1274.09 139.672 1274.09 138.072C1274.09 136.515 1274.65 135.267 1275.76 134.328C1276.87 133.368 1278.36 132.888 1280.24 132.888H1284.91V132.472C1284.91 131.576 1284.61 130.84 1284.01 130.264C1283.42 129.688 1282.62 129.4 1281.61 129.4C1280.68 129.4 1279.93 129.645 1279.37 130.136C1278.84 130.605 1278.51 131.16 1278.38 131.8L1274.83 130.808C1275.24 129.293 1276.04 128.12 1277.23 127.288C1278.45 126.435 1279.91 126.008 1281.61 126.008C1283.88 126.008 1285.64 126.648 1286.89 127.928C1288.17 129.208 1288.81 130.723 1288.81 132.472V139.032C1288.81 139.544 1289.09 139.8 1289.65 139.8H1290.16V143H1287.82C1287.01 143 1286.37 142.776 1285.9 142.328C1285.45 141.859 1285.23 141.251 1285.23 140.504V139.768H1284.59C1284.42 140.899 1283.91 141.795 1283.05 142.456C1282.22 143.096 1281.14 143.416 1279.82 143.416ZM1278.13 137.976C1278.13 138.616 1278.37 139.139 1278.86 139.544C1279.37 139.949 1280.02 140.152 1280.81 140.152C1282.16 140.152 1283.17 139.789 1283.85 139.064C1284.56 138.317 1284.91 137.389 1284.91 136.28V135.864H1280.75C1279.94 135.864 1279.3 136.045 1278.83 136.408C1278.36 136.749 1278.13 137.272 1278.13 137.976ZM1299.1 126.008C1300.34 126.008 1301.42 126.328 1302.33 126.968C1303.27 127.608 1303.9 128.483 1304.22 129.592H1304.89V126.424H1308.86V149.72H1304.89V139.832H1304.25C1303.89 140.963 1303.26 141.848 1302.36 142.488C1301.47 143.107 1300.38 143.416 1299.1 143.416C1296.9 143.416 1295.11 142.595 1293.72 140.952C1292.36 139.288 1291.68 137.208 1291.68 134.712C1291.68 132.216 1292.36 130.147 1293.72 128.504C1295.11 126.84 1296.9 126.008 1299.1 126.008ZM1295.74 134.712C1295.74 136.205 1296.19 137.421 1297.08 138.36C1297.98 139.299 1299.09 139.768 1300.41 139.768C1301.71 139.768 1302.81 139.309 1303.71 138.392C1304.6 137.453 1305.05 136.227 1305.05 134.712C1305.05 133.261 1304.6 132.056 1303.71 131.096C1302.83 130.136 1301.74 129.656 1300.41 129.656C1299.07 129.656 1297.95 130.125 1297.05 131.064C1296.18 131.981 1295.74 133.197 1295.74 134.712ZM1318.02 143.416C1316.24 143.416 1314.88 142.861 1313.92 141.752C1312.98 140.621 1312.51 139.245 1312.51 137.624V126.424H1316.51V136.216C1316.51 137.219 1316.82 138.029 1317.44 138.648C1318.06 139.267 1318.85 139.576 1319.81 139.576C1320.83 139.576 1321.66 139.245 1322.3 138.584C1322.96 137.923 1323.3 137.08 1323.3 136.056V126.424H1327.3V143H1323.3V139.832H1322.66C1322.38 140.877 1321.82 141.741 1320.99 142.424C1320.18 143.085 1319.19 143.416 1318.02 143.416ZM1330.92 143V126.424H1334.92V143H1330.92ZM1330.89 123.8V119.448H1334.95V123.8H1330.89Z" fill="#001D4B"/>
<path d="M103.334 59.416C96.6455 59.416 92.0375 54.456 92.0375 47.8C92.0375 41.208 96.6775 36.184 103.366 36.184C108.198 36.184 111.654 38.872 113.19 42.392L110.982 43.576C109.958 40.888 107.206 38.584 103.366 38.584C98.2455 38.584 94.6615 42.488 94.6615 47.8C94.6615 53.176 98.2455 57.016 103.366 57.016C106.95 57.016 110.246 54.84 111.27 51.128L113.574 52.28C112.166 56.44 108.262 59.416 103.334 59.416ZM124.948 59.416C120.02 59.416 116.468 55.896 116.468 50.84C116.468 45.816 120.02 42.264 124.948 42.264C129.876 42.264 133.428 45.816 133.428 50.84C133.428 55.896 129.876 59.416 124.948 59.416ZM119.06 50.84C119.06 54.616 121.524 57.144 124.948 57.144C128.372 57.144 130.836 54.616 130.836 50.84C130.836 47.192 128.372 44.536 124.948 44.536C121.524 44.536 119.06 47.192 119.06 50.84ZM137.279 59V42.68H139.807V45.432H140.447C140.959 43.768 142.623 42.264 145.215 42.264C149.119 42.264 151.295 45.144 151.295 48.408V59H148.767V48.92C148.767 46.328 146.815 44.6 144.479 44.6C141.727 44.6 139.807 46.616 139.807 49.4V59H137.279ZM162.907 59.416C157.947 59.416 154.811 55.736 154.811 50.68C154.811 45.432 158.523 42.264 162.811 42.264C167.803 42.264 170.715 46.008 170.459 50.52L170.395 51.64H157.307C157.627 54.904 159.515 57.144 162.907 57.144C165.115 57.144 166.843 56.248 167.995 54.36L169.883 55.576C168.635 57.88 166.107 59.416 162.907 59.416ZM157.371 49.4H167.995C167.995 46.616 165.819 44.472 162.811 44.472C159.643 44.472 157.787 46.616 157.371 49.4ZM181.446 59.416C176.55 59.416 173.03 55.768 173.03 50.84C173.03 45.912 176.646 42.264 181.446 42.264C184.518 42.264 187.526 43.768 188.838 47.064L186.694 48.184C186.086 46.392 184.134 44.6 181.446 44.6C178.054 44.6 175.622 47.224 175.622 50.84C175.622 54.616 178.182 57.08 181.446 57.08C183.814 57.08 186.118 55.832 187.078 53.144L189.126 54.168C187.782 57.912 184.742 59.416 181.446 59.416ZM198.086 59C195.942 59 194.182 57.624 194.182 54.968V44.792H191.366V42.68H194.246V38.968H196.678V42.68H201.798V44.792H196.678V54.968C196.678 56.28 197.478 56.792 198.47 56.792H201.574V59H198.086ZM212.47 59.416C207.51 59.416 204.374 55.736 204.374 50.68C204.374 45.432 208.086 42.264 212.374 42.264C217.366 42.264 220.278 46.008 220.022 50.52L219.958 51.64H206.87C207.19 54.904 209.078 57.144 212.47 57.144C214.678 57.144 216.406 56.248 217.558 54.36L219.446 55.576C218.198 57.88 215.67 59.416 212.47 59.416ZM206.934 49.4H217.558C217.558 46.616 215.382 44.472 212.374 44.472C209.206 44.472 207.35 46.616 206.934 49.4ZM240.134 59.416C235.238 59.416 231.718 55.768 231.718 50.84C231.718 45.912 235.334 42.264 240.134 42.264C243.206 42.264 246.214 43.768 247.526 47.064L245.382 48.184C244.774 46.392 242.822 44.6 240.134 44.6C236.742 44.6 234.31 47.224 234.31 50.84C234.31 54.616 236.87 57.08 240.134 57.08C242.502 57.08 244.806 55.832 245.766 53.144L247.814 54.168C246.47 57.912 243.43 59.416 240.134 59.416ZM256.838 59.416C253.222 59.416 250.854 57.24 250.854 54.168C250.854 51.096 253.254 49.08 256.774 49.08H262.342V48.568C262.342 46.36 260.774 44.472 257.926 44.472C255.398 44.472 253.99 46.072 253.734 47.608L251.526 46.968C252.134 44.184 254.502 42.264 257.926 42.264C262.502 42.264 264.838 45.272 264.838 48.568V56.088C264.838 56.696 265.126 56.888 265.638 56.888H266.182V59H265.158C263.462 59 262.662 57.944 262.662 56.664V56.056H262.022C261.446 58.072 259.622 59.416 256.838 59.416ZM253.382 54.168C253.382 56.152 255.174 57.24 257.126 57.24C260.998 57.24 262.342 54.232 262.342 51.736V51.256H256.998C254.534 51.256 253.382 52.504 253.382 54.168ZM276.18 59.416C271.668 59.416 268.436 55.8 268.436 50.872C268.436 45.912 271.764 42.264 276.18 42.264C278.996 42.264 280.948 43.64 281.652 45.432H282.292V35H284.788V59H282.292V56.248H281.62C280.948 58.04 278.996 59.416 276.18 59.416ZM270.996 50.872C270.996 54.744 273.46 57.144 276.724 57.144C280.212 57.144 282.388 54.296 282.388 50.872C282.388 46.776 279.796 44.536 276.66 44.536C273.46 44.536 270.996 47.128 270.996 50.872ZM294.775 59.416C291.159 59.416 288.791 57.24 288.791 54.168C288.791 51.096 291.191 49.08 294.711 49.08H300.279V48.568C300.279 46.36 298.711 44.472 295.863 44.472C293.335 44.472 291.927 46.072 291.671 47.608L289.463 46.968C290.071 44.184 292.439 42.264 295.863 42.264C300.439 42.264 302.775 45.272 302.775 48.568V56.088C302.775 56.696 303.063 56.888 303.575 56.888H304.119V59H303.095C301.399 59 300.599 57.944 300.599 56.664V56.056H299.959C299.383 58.072 297.559 59.416 294.775 59.416ZM291.319 54.168C291.319 56.152 293.111 57.24 295.063 57.24C298.935 57.24 300.279 54.232 300.279 51.736V51.256H294.935C292.471 51.256 291.319 52.504 291.319 54.168ZM316.779 59V42.68H319.307V45.432H319.947C320.459 43.768 322.059 42.264 324.651 42.264C327.275 42.264 329.067 43.736 329.803 45.432H330.507C331.179 43.704 332.715 42.264 335.307 42.264C339.019 42.264 341.259 45.048 341.259 48.408V59H338.731V48.92C338.731 46.2 337.067 44.6 334.571 44.6C332.235 44.6 330.315 46.264 330.315 49.4V59H327.787V48.888C327.787 46.2 325.867 44.6 323.531 44.6C321.099 44.6 319.307 46.552 319.307 49.4V59H316.779ZM353.26 59.416C348.332 59.416 344.78 55.896 344.78 50.84C344.78 45.816 348.332 42.264 353.26 42.264C358.188 42.264 361.74 45.816 361.74 50.84C361.74 55.896 358.188 59.416 353.26 59.416ZM347.372 50.84C347.372 54.616 349.836 57.144 353.26 57.144C356.684 57.144 359.148 54.616 359.148 50.84C359.148 47.192 356.684 44.536 353.26 44.536C349.836 44.536 347.372 47.192 347.372 50.84ZM365.591 59V42.68H368.119V45.432H368.759C369.271 43.768 370.871 42.264 373.463 42.264C376.087 42.264 377.879 43.736 378.615 45.432H379.319C379.991 43.704 381.527 42.264 384.119 42.264C387.831 42.264 390.071 45.048 390.071 48.408V59H387.543V48.92C387.543 46.2 385.879 44.6 383.383 44.6C381.047 44.6 379.127 46.264 379.127 49.4V59H376.599V48.888C376.599 46.2 374.679 44.6 372.343 44.6C369.911 44.6 368.119 46.552 368.119 49.4V59H365.591ZM401.689 59.416C396.729 59.416 393.593 55.736 393.593 50.68C393.593 45.432 397.305 42.264 401.593 42.264C406.585 42.264 409.497 46.008 409.241 50.52L409.177 51.64H396.089C396.409 54.904 398.297 57.144 401.689 57.144C403.897 57.144 405.625 56.248 406.777 54.36L408.665 55.576C407.417 57.88 404.889 59.416 401.689 59.416ZM396.153 49.4H406.777C406.777 46.616 404.601 44.472 401.593 44.472C398.425 44.472 396.569 46.616 396.153 49.4ZM413.091 59V42.68H415.619V45.432H416.259C416.771 43.768 418.435 42.264 421.027 42.264C424.931 42.264 427.107 45.144 427.107 48.408V59H424.579V48.92C424.579 46.328 422.627 44.6 420.291 44.6C417.539 44.6 415.619 46.616 415.619 49.4V59H413.091ZM437.024 59C434.88 59 433.12 57.624 433.12 54.968V44.792H430.304V42.68H433.184V38.968H435.616V42.68H440.736V44.792H435.616V54.968C435.616 56.28 436.416 56.792 437.408 56.792H440.512V59H437.024ZM451.791 59.416C446.863 59.416 443.311 55.896 443.311 50.84C443.311 45.816 446.863 42.264 451.791 42.264C456.719 42.264 460.271 45.816 460.271 50.84C460.271 55.896 456.719 59.416 451.791 59.416ZM445.903 50.84C445.903 54.616 448.367 57.144 451.791 57.144C455.215 57.144 457.679 54.616 457.679 50.84C457.679 47.192 455.215 44.536 451.791 44.536C448.367 44.536 445.903 47.192 445.903 50.84Z" fill="#001D4B"/>
<path d="M1345.45 131.224H1364.56V130.584C1363.75 130.52 1363 130.36 1362.32 130.104C1361.63 129.827 1360.96 129.4 1360.3 128.824C1359.64 128.248 1359.12 127.427 1358.73 126.36C1358.35 125.293 1358.16 124.013 1358.16 122.52H1362.38C1362.38 123.907 1362.57 125.133 1362.96 126.2C1363.34 127.267 1363.81 128.099 1364.36 128.696C1364.94 129.293 1365.61 129.784 1366.38 130.168C1367.15 130.552 1367.86 130.808 1368.52 130.936C1369.19 131.064 1369.86 131.128 1370.54 131.128V135.352C1369.86 135.352 1369.19 135.416 1368.52 135.544C1367.86 135.672 1367.15 135.928 1366.38 136.312C1365.61 136.696 1364.94 137.187 1364.36 137.784C1363.81 138.381 1363.34 139.213 1362.96 140.28C1362.57 141.347 1362.38 142.573 1362.38 143.96H1358.16C1358.16 142.467 1358.35 141.187 1358.73 140.12C1359.12 139.053 1359.64 138.232 1360.3 137.656C1360.96 137.08 1361.63 136.664 1362.32 136.408C1363 136.131 1363.75 135.96 1364.56 135.896V135.256H1345.45V131.224Z" fill="#001D4B"/>
<defs>
<linearGradient id="paint0_linear_102_4" x1="-29" y1="89" x2="1453" y2="89" gradientUnits="userSpaceOnUse">
<stop stop-color="#6DB4E4"/>
<stop offset="1" stop-color="#B1D1E8"/>
</linearGradient>
</defs>
</svg>
