<svg width="26" height="22" viewBox="0 0 26 22" fill="none" xmlns="http://www.w3.org/2000/svg">
<path d="M-2.92063e-05 8.70399H19.104V8.064C18.2933 7.99999 17.5466 7.83999 16.864 7.58399C16.1813 7.30666 15.5093 6.88 14.848 6.304C14.1866 5.72799 13.664 4.90666 13.28 3.83999C12.896 2.77333 12.704 1.49333 12.704 -5.72205e-06H16.928C16.928 1.38666 17.12 2.61333 17.504 3.67999C17.888 4.74666 18.3573 5.57866 18.912 6.17599C19.488 6.77333 20.16 7.26399 20.928 7.64799C21.696 8.032 22.4106 8.288 23.072 8.416C23.7333 8.544 24.4053 8.608 25.088 8.608V12.832C24.4053 12.832 23.7333 12.896 23.072 13.024C22.4106 13.152 21.696 13.408 20.928 13.792C20.16 14.176 19.488 14.6667 18.912 15.264C18.3573 15.8613 17.888 16.6933 17.504 17.76C17.12 18.8267 16.928 20.0533 16.928 21.44H12.704C12.704 19.9467 12.896 18.6667 13.28 17.6C13.664 16.5333 14.1866 15.712 14.848 15.136C15.5093 14.56 16.1813 14.144 16.864 13.888C17.5466 13.6107 18.2933 13.44 19.104 13.376V12.736H-2.92063e-05V8.70399Z" fill="#001D4B"/>
</svg>
