<svg width="37" height="39" viewBox="0 0 37 39" fill="none" xmlns="http://www.w3.org/2000/svg">
<path d="M15.2264 27.292L0 30.8288V1.72129C0 0.640813 0.978367 -0.172265 2.03235 0.0313932L13.8407 2.32293C14.6446 2.4784 15.2264 3.18887 15.2264 4.01283V27.2905V27.292Z" fill="white"/>
<path d="M36.3293 22.3902L27.5225 24.4361V7.06303C27.5225 5.981 28.5008 5.16793 29.5548 5.37314L34.9451 6.41941C35.7491 6.57488 36.3308 7.28535 36.3308 8.10931V22.3902H36.3293Z" fill="white"/>
<path d="M27.1269 34.3408L17.0022 38.8508C15.8726 39.3545 14.6025 38.5213 14.6025 37.276V27.4367L28.1454 24.2916V32.766C28.1454 33.4469 27.7457 34.0641 27.1269 34.3408Z" fill="white"/>
</svg>
